<svg id="visual" viewBox="0 0 900 450" width="900" height="450" xmlns="http://www.w3.org/2000/svg" xmlns:xlink="http://www.w3.org/1999/xlink" version="1.1"><rect x="0" y="0" width="900" height="450" fill="#002C5F"></rect><g transform="translate(491.2709908052339 202.29478617029102)"><path d="M228.3 -352.1C264.8 -331.7 242 -215.9 228.2 -136.4C214.4 -56.9 209.7 -13.7 257.3 75.9C304.9 165.5 404.9 301.5 396.9 385.8C389 470.1 273.1 502.7 181 456.8C89 410.9 20.7 286.4 -83.5 264.7C-187.6 243.1 -327.7 324.2 -406.1 309.6C-484.4 295 -501.1 184.7 -452.8 103.6C-404.5 22.5 -291.4 -29.5 -266 -136.5C-240.5 -243.6 -302.7 -405.7 -273 -429.1C-243.3 -452.6 -121.6 -337.3 -12.9 -317.2C95.9 -297.2 191.7 -372.4 228.3 -352.1" fill="#e4dcd3"></path></g></svg>