<?xml version="1.0" encoding="UTF-8" standalone="no"?>
<!-- Created with Inkscape (http://www.inkscape.org/) -->

<svg
   version="1.1"
   id="svg151"
   width="481.92001"
   height="156.16"
   viewBox="0 0 481.92001 156.16"
   sodipodi:docname="Hyundai-logo.svg"
   inkscape:export-filename="Hyundai-logo.png"
   inkscape:export-xdpi="96"
   inkscape:export-ydpi="96"
   inkscape:version="1.2.1 (9c6d41e410, 2022-07-14)"
   xmlns:inkscape="http://www.inkscape.org/namespaces/inkscape"
   xmlns:sodipodi="http://sodipodi.sourceforge.net/DTD/sodipodi-0.dtd"
   xmlns="http://www.w3.org/2000/svg"
   xmlns:svg="http://www.w3.org/2000/svg">
  <defs
     id="defs155" />
  <sodipodi:namedview
     id="namedview153"
     pagecolor="#ffffff"
     bordercolor="#000000"
     borderopacity="0.25"
     inkscape:showpageshadow="2"
     inkscape:pageopacity="0.0"
     inkscape:pagecheckerboard="0"
     inkscape:deskcolor="#d1d1d1"
     showgrid="false"
     inkscape:zoom="2.5107901"
     inkscape:cx="159.3124"
     inkscape:cy="46.200596"
     inkscape:window-width="2560"
     inkscape:window-height="1377"
     inkscape:window-x="2552"
     inkscape:window-y="-8"
     inkscape:window-maximized="1"
     inkscape:current-layer="svg151" />
  <path
     style="display:inline;fill:#000000;stroke-width:0.64"
     d="m 83.308522,122.11301 c -17.093408,-2.512 -30.610573,-9.57142 -35.128206,-18.34591 -3.41733,-6.637409 -2.061411,-12.358939 4.438636,-18.729609 15.802389,-15.487849 55.042738,-18.66938 79.725128,-6.463958 12.43639,6.149788 17.64704,14.291448 14.74271,23.035567 -3.05894,9.20963 -16.63999,17.21705 -34.2155,20.17357 -6.48214,1.09041 -23.125226,1.27639 -29.562768,0.33034 z m 18.802488,-4.75552 c 2.4177,-1.75143 5.78226,-8.85199 5.85513,-12.35667 0.0803,-3.85894 -1.28353,-4.80934 -6.34206,-4.4197 -4.801793,0.36987 -12.183346,2.84311 -20.480012,6.86198 -6.378087,3.08952 -11.261856,6.51949 -10.455514,7.34311 0.233466,0.23847 2.61568,0.99492 5.293799,1.68099 10.594336,2.71401 23.026404,3.13762 26.128657,0.89029 z m 19.04593,-1.63992 c 9.94972,-2.74336 18.42163,-8.13605 21.13389,-13.45253 2.20302,-4.318259 1.38471,-9.679929 -2.04823,-13.420249 -2.0119,-2.19204 -5.91779,-5.0873 -6.86308,-5.0873 -0.42006,0 -2.32842,3.33001 -4.24081,7.40002 -3.87315,8.24298 -8.75235,16.605839 -12.38445,21.226729 -1.31995,1.67928 -2.61722,3.41325 -2.88282,3.85325 -0.71712,1.18801 1.72259,1.01389 7.2855,-0.51992 z m -56.039573,-12.5258 c 4.080653,-8.584799 8.941082,-16.894669 12.933856,-22.113019 1.531283,-2.001301 2.526541,-3.797941 2.211693,-3.992532 -0.786611,-0.486151 -9.183277,1.719512 -14.005863,3.679102 -5.368429,2.18139 -11.208002,6.38763 -13.347075,9.6139 -3.517962,5.30597 -2.589397,11.512339 2.418007,16.161549 2.365418,2.19621 5.044742,4.09672 5.775532,4.09672 0.261056,0 2.067283,-3.35057 4.01385,-7.44572 z M 102.0983,91.406291 c 11.47316,-3.89722 22.90713,-10.37075 21.28122,-12.04872 -1.45215,-1.498645 -11.67132,-3.352215 -20.52427,-3.722727 l -9.008836,-0.377035 -2.29045,2.290454 c -2.789976,2.789975 -5.107698,8.638818 -4.843403,12.222488 0.358259,4.85791 4.578563,5.30653 15.385739,1.63554 z m 64.48578,5.7912 V 78.63749 h 4.48 4.48 v 7.040001 7.04 h 8 8 v -7.04 -7.040001 h 4.48 4.48 v 18.560001 18.559999 h -4.48 -4.48 v -7.36 -7.36 h -8 -8 v 7.36 7.36 h -4.48 -4.48 z m 52.48,11.955469 v -6.60453 l -7.36,-11.668209 c -4.048,-6.41751 -7.36,-11.809125 -7.36,-11.981354 0,-0.172229 2.36254,-0.229496 5.25009,-0.12726 l 5.25009,0.185883 3.86991,6.212981 c 2.12845,3.41714 4.17889,6.51972 4.55653,6.89462 0.48743,0.4839 1.97268,-1.36462 5.12,-6.37225 l 4.43338,-7.053873 5.28438,-7.68e-4 5.28439,-7.68e-4 -3.2991,5.279999 c -1.8145,2.904 -5.27247,8.38378 -7.68438,12.17729 l -4.38529,6.897359 v 6.3827 6.38271 h -4.48 -4.48 z m 28.16,-11.955469 V 78.63749 h 4.48 4.48 v 14.419701 14.419699 l 7.84,-0.1797 7.84,-0.1797 0.17224,-14.239999 0.17225,-14.240001 h 4.46775 4.46776 l -0.004,14.880001 c -0.004,16.800059 -0.38501,19.155149 -3.39571,20.990899 -1.85943,1.13378 -3.30574,1.24453 -16.28072,1.24671 l -14.23973,0.002 z m 42.24,-0.0329 V 78.571713 l 15.09648,0.192879 15.09648,0.192898 1.54352,1.795691 1.54352,1.79569 v 16.60431 16.604309 h -4.16 -4.16 v -14.00164 c 0,-11.187749 -0.17918,-14.150339 -0.8916,-14.741599 -0.59017,-0.48979 -3.34893,-0.67857 -8.16,-0.55836 l -7.2684,0.1816 -0.17201,14.559999 -0.17202,14.56 h -4.14798 -4.14799 V 97.164611 Z m 41.6,0.0658 V 78.63749 h 14.43178 c 15.68908,0 17.262,0.294203 18.72362,3.502121 0.51684,1.13432 0.7646,6.12395 0.7646,15.3979 V 111.2573 l -1.8664,2.09009 -1.8664,2.0901 -15.0936,0.19288 -15.0936,0.19288 V 97.230371 Z m 24.81727,0.0155 c 0.13412,-7.4685 -0.0217,-9.99781 -0.64,-10.3902 -0.4495,-0.28525 -4.05727,-0.52306 -8.01727,-0.52844 l -7.2,-0.01 v 10.5797 10.579699 l 7.84,-0.1797 7.84,-0.1797 0.17727,-9.871559 z m 16.798,3.951559 c 0.0169,-16.099129 0.41081,-19.001149 2.86691,-21.120002 1.6263,-1.402961 2.04658,-1.439968 16.35351,-1.439968 h 14.68431 v 18.560001 18.559999 h -4.16 -4.16 v -5.76 -5.76 h -8.32 -8.32 v 5.76 5.76 h -4.48 -4.48 l 0.0153,-14.56 z m 25.45277,-9.919999 -0.18804,-4.64 -7.2684,-0.1816 c -4.81107,-0.12021 -7.56983,0.0686 -8.16,0.55836 -0.59158,0.49101 -0.8916,2.11345 -0.8916,4.82163 v 4.08164 h 8.34804 8.34804 l -0.18804,-4.64 z m 17.41196,5.92003 V 78.63749 h 4.48 4.48 v 18.560001 18.559999 h -4.48 -4.48 z"
     id="path319" />
  <g
     inkscape:groupmode="layer"
     inkscape:label="Image"
     id="g157" />
  <path
     style="fill:#000000;stroke-width:0.552807"
     d="M 53.215226,47.574693 V 29.950178 l 13.7657,0.179636 c 15.284708,0.199457 16.363229,0.427502 18.515823,3.915063 1.005227,1.628631 1.085857,2.848509 1.087786,16.456675 l 0.0017,14.697654 h -4.449519 -4.449519 l -0.007,-11.950429 C 77.676806,46.676041 77.52594,40.757588 77.346464,40.096657 76.871026,38.345306 74.39864,37.726956 67.87156,37.726956 h -5.756948 v 13.736125 13.736125 h -4.449519 -4.449519 z m 37.264707,0.04227 V 30.034725 h 16.963797 16.96379 v 3.846116 3.846115 H 112.17134 99.935161 v 3.021947 3.021948 h 9.177129 9.17714 v 3.846115 3.846115 h -9.17714 -9.177129 v 3.021948 3.021947 h 12.236179 12.23618 v 3.846115 3.846115 H 107.44373 90.479933 Z m 43.832927,0.01993 -7.53997,-17.602168 5.35254,1.34e-4 5.35256,1.34e-4 4.36633,10.987096 c 2.40147,6.042903 4.5289,10.885426 4.7276,10.761162 0.19871,-0.12426 2.23844,-5.063745 4.53272,-10.976627 l 4.17142,-10.750692 5.36579,-0.01065 5.36579,-0.01065 4.27351,10.576817 c 2.35044,5.817249 4.46884,10.777432 4.70759,11.022629 0.23874,0.245195 1.07169,-1.238307 1.85098,-3.29667 0.77931,-2.058364 2.71202,-7.018547 4.29492,-11.022628 l 2.87798,-7.280146 h 5.29693 c 4.8157,0 5.26311,0.08736 4.9247,0.961529 -0.20473,0.528841 -3.5478,8.445976 -7.42903,17.593631 l -7.0568,16.632104 -4.68548,-0.148762 -4.68548,-0.148745 -4.54787,-10.611478 c -2.5013,-5.836312 -4.77283,-10.623204 -5.04782,-10.637537 -0.275,-0.01425 -2.55168,4.760832 -5.05928,10.611478 l -4.55929,10.637537 -4.65519,0.157295 -4.65519,0.157279 -7.53996,-17.602166 z m 65.1803,-0.04524 v -17.60758 l 26.00188,0.162687 c 28.88018,0.180694 28.42167,0.122578 30.752,3.898115 1.00523,1.628631 1.08586,2.848508 1.08779,16.456675 l 0.002,14.697654 h -4.44952 -4.44952 V 52.666989 c 0,-9.947457 -0.16251,-12.752195 -0.78838,-13.598764 -0.70666,-0.956007 -1.49927,-1.066545 -7.64762,-1.066545 h -6.85922 l -0.14879,13.598764 -0.14878,13.598764 h -4.4398 -4.4398 l -0.007,-11.950429 c -0.005,-6.572736 -0.15434,-12.491189 -0.33381,-13.15212 -0.47544,-1.751351 -2.94781,-2.369702 -9.47491,-2.369702 h -5.757 v 13.736126 13.736125 h -4.44952 -4.44952 z m 62.84946,2.265261 V 34.514613 l 1.38271,-1.623333 c 2.09216,-2.456236 4.77779,-2.856539 19.16451,-2.856539 h 12.82418 v 17.58224 17.582241 h -4.44952 -4.44952 v -4.39556 -4.39556 h -7.78666 -7.78666 v 4.39556 4.39556 h -4.44952 -4.44952 z m 24.19426,-6.086052 V 38.00169 l -6.51774,-0.154652 c -8.53986,-0.202628 -8.77748,-0.01202 -8.77748,7.038216 v 4.960509 l 7.64761,-0.152866 7.64761,-0.152866 z m 10.84571,3.805077 V 29.952647 l 14.34784,0.178401 c 12.57764,0.156386 14.53241,0.297976 15.84368,1.147581 2.93963,1.904677 3.45797,3.389116 3.45797,9.903264 v 5.975769 l -1.77799,1.569353 c -1.78373,1.57445 -4.87128,2.727278 -7.31961,2.733001 -1.68479,0.0039 -1.51183,0.415654 2.57005,6.118062 1.81067,2.529548 3.73605,5.279119 4.27858,6.110155 l 0.98642,1.510973 h -5.27039 -5.27037 l -4.82761,-6.868062 c -3.96201,-5.636619 -5.07286,-6.868063 -6.19546,-6.868063 h -1.36788 v 6.868063 6.868062 h -4.72762 -4.72761 z m 23.59834,-3.5696 c 0.4807,-0.474877 0.87401,-1.697109 0.87401,-2.71607 0,-2.99545 -1.39356,-3.563302 -8.74471,-3.563302 h -6.27241 v 3.571393 3.571392 h 6.63454 c 5.28982,0 6.8117,-0.175001 7.50857,-0.863413 z m 13.66638,3.610638 v -17.58224 h 4.71098 4.71102 l 0.15573,6.993772 0.15573,6.993774 5.00571,-6.966915 5.00571,-6.966914 5.73076,-0.02685 5.73079,-0.02685 -3.61857,5.082366 c -1.99021,2.795301 -4.78339,6.751305 -6.20708,8.79112 l -2.58851,3.708754 2.58851,3.708754 c 1.42369,2.039814 4.21687,5.995818 6.20708,8.79112 l 3.61857,5.082366 -5.73079,-0.02685 -5.73076,-0.02685 -5.00571,-6.966915 -5.00571,-6.966914 -0.15573,6.993774 -0.15573,6.993772 h -4.71102 -4.71098 z m 32.81521,0 v -17.58224 h 16.96377 16.96379 v 3.846115 3.846115 h -12.23617 -12.23618 v 3.021948 3.021947 h 9.17713 9.17714 v 3.846115 3.846115 h -9.17714 -9.17713 v 3.021948 3.021948 h 12.23618 12.23617 v 3.846115 3.846115 h -16.96379 -16.96377 z m 47.83231,3.846115 V 37.726971 h -5.83999 -5.84 v -3.846115 -3.846115 h 16.12951 16.12951 v 3.826893 3.826895 l -5.70095,0.156575 -5.70094,0.156574 -0.14878,13.598764 -0.14879,13.598764 h -4.4398 -4.4398 z"
     id="path463" />
</svg>
